Coordinates
version=1
nRows=12
nColumns=63
inDegrees=yes

Units are S.I. units (second, meters, Newtons, ...)
If the header above contains a line with 'inDegrees', this indicates whether rotational values are in degrees (yes) or radians (no).

endheader
time	pelvis_tilt	pelvis_list	pelvis_rotation	pelvis_tx	pelvis_ty	pelvis_tz	hip_flexion_r	hip_adduction_r	hip_rotation_r	knee_angle_r	knee_angle_r_beta	ankle_angle_r	subtalar_angle_r	mtp_angle_r	hip_flexion_l	hip_adduction_l	hip_rotation_l	knee_angle_l	knee_angle_l_beta	ankle_angle_l	subtalar_angle_l	mtp_angle_l	L5_S1_Flex_Ext	L5_S1_Lat_Bending	L5_S1_axial_rotation	L4_L5_Flex_Ext	L4_L5_Lat_Bending	L4_L5_axial_rotation	L3_L4_Flex_Ext	L3_L4_Lat_Bending	L3_L4_axial_rotation	L2_L3_Flex_Ext	L2_L3_Lat_Bending	L2_L3_axial_rotation	L1_L2_Flex_Ext	L1_L2_Lat_Bending	L1_L2_axial_rotation	L1_T12_Flex_Ext	L1_T12_Lat_Bending	L1_T12_axial_rotation	Abs_r3	Abs_r2	Abs_r1	Abs_t1	Abs_t2	neck_flexion	neck_bending	neck_rotation	arm_flex_r	arm_add_r	arm_rot_r	elbow_flex_r	pro_sup_r	wrist_flex_r	wrist_dev_r	arm_flex_l	arm_add_l	arm_rot_l	elbow_flex_l	pro_sup_l	wrist_flex_l	wrist_dev_l
2.033333	-2.054119	-10.938255	93.932592	0.224220	1.072037	0.535137	13.133267	-3.458794	-9.504452	9.671895	0.168806	30.464155	18.730182	0.000000	15.205979	0.998810	-13.534975	11.807047	0.206072	25.674593	14.441366	0.000000	-0.169570	-0.831352	-0.238588	-0.314908	-1.105698	-0.253500	-0.278586	-2.021348	-0.253500	-0.193801	-2.021348	-0.208765	-0.157462	-1.695292	-0.193853	-0.096892	-1.287764	-0.178941	-1.211220	-9.404415	-1.326955	0.000000	0.000000	26.462830	9.925061	-21.015240	36.232138	-32.162736	-32.669574	142.949796	62.069892	10.193677	9.703217	5.243713	-22.846470	60.069635	21.241243	52.381842	-8.271667	-11.064479
2.050000	-2.047404	-10.950072	93.962697	0.224389	1.072001	0.535129	13.146254	-3.444643	-9.518864	9.672860	0.168823	30.557114	18.729425	0.000000	15.142894	1.022217	-13.476383	11.649583	0.203324	25.699273	14.308480	0.000000	-0.176331	-0.828031	-0.233991	-0.327465	-1.101281	-0.248615	-0.289695	-2.013274	-0.248615	-0.201529	-2.013274	-0.204742	-0.163741	-1.688520	-0.190117	-0.100756	-1.282620	-0.175493	-1.259517	-9.366850	-1.301386	0.000000	0.000000	26.466854	9.654503	-21.109927	35.876719	-32.420235	-31.726980	142.302932	62.729015	9.234131	10.146510	5.464879	-22.873154	61.347396	20.988303	51.083294	-8.191518	-10.900116
2.066667	-2.084038	-10.977882	93.983362	0.224604	1.071954	0.535039	13.160996	-3.472561	-9.510397	9.662219	0.168638	30.648507	18.725031	0.000000	15.071129	1.089953	-13.413675	11.455377	0.199934	25.696680	14.195439	0.000000	-0.180844	-0.830678	-0.204791	-0.335845	-1.104801	-0.217590	-0.297108	-2.019709	-0.217590	-0.206686	-2.019709	-0.179192	-0.167931	-1.693918	-0.166393	-0.103334	-1.286719	-0.153593	-1.291748	-9.396790	-1.138985	0.000000	0.000000	26.502190	9.348210	-21.330652	35.204030	-32.844238	-30.705437	141.723636	63.729027	8.573821	10.478923	5.761948	-22.932148	62.649500	20.820676	49.972514	-8.203009	-10.815421
2.083333	-2.150171	-11.023855	93.991599	0.224833	1.071906	0.534874	13.180018	-3.529750	-9.471720	9.636812	0.168194	30.728290	18.720219	0.000000	14.994959	1.189515	-13.343922	11.225708	0.195926	25.674816	14.101772	0.000000	-0.182386	-0.837541	-0.156107	-0.338710	-1.113930	-0.165863	-0.299643	-2.036398	-0.165863	-0.208449	-2.036398	-0.136593	-0.169364	-1.707914	-0.126837	-0.104216	-1.297351	-0.117080	-1.302768	-9.474434	-0.868219	0.000000	0.000000	26.565596	9.047572	-21.633586	34.267752	-33.421786	-29.634875	141.243773	64.965146	8.203193	10.685016	6.092376	-22.999639	63.876955	20.712996	49.026945	-8.332500	-10.864115
2.100000	-2.244180	-11.074637	94.001900	0.225050	1.071866	0.534633	13.185337	-3.617380	-9.425054	9.595559	0.167474	30.801092	18.715469	0.000000	14.909853	1.323954	-13.225986	10.977707	0.191597	25.639346	13.978962	0.000000	-0.182508	-0.847571	-0.102126	-0.338936	-1.127270	-0.108509	-0.299843	-2.060785	-0.108509	-0.208589	-2.060785	-0.089360	-0.169477	-1.728368	-0.082978	-0.104285	-1.312888	-0.076595	-1.303639	-9.587897	-0.567995	0.000000	0.000000	26.653764	8.780763	-21.890228	33.185145	-34.095235	-28.479720	140.888476	65.991831	8.155723	10.999882	6.367715	-23.084679	64.741436	20.714286	48.449665	-8.560735	-11.002177
2.116667	-2.354619	-11.132141	94.000888	0.225302	1.071840	0.534337	13.186703	-3.719291	-9.364309	9.543697	0.166569	30.859668	18.711278	0.000000	14.824451	1.468379	-13.134799	10.726958	0.187221	25.592546	13.915859	0.000000	-0.181353	-0.861135	-0.034263	-0.336790	-1.145310	-0.036404	-0.297944	-2.093764	-0.036404	-0.207268	-2.093764	-0.029980	-0.168404	-1.756026	-0.027838	-0.103625	-1.333898	-0.025697	-1.295383	-9.741331	-0.190559	0.000000	0.000000	26.766734	8.529849	-22.202110	31.923874	-34.841720	-27.436027	140.691040	66.917743	8.387726	11.233632	6.634915	-23.194876	65.377231	20.801566	48.218502	-8.838320	-11.185368
2.133333	-2.476050	-11.198735	94.008924	0.225471	1.071805	0.533985	13.180733	-3.839751	-9.304364	9.474159	0.165355	30.906768	18.713128	0.000000	14.742193	1.632724	-13.018226	10.470983	0.182753	25.534752	13.860410	0.000000	-0.176747	-0.874921	0.031643	-0.328236	-1.163645	0.033621	-0.290377	-2.127283	0.033621	-0.202004	-2.127283	0.027688	-0.164127	-1.784139	0.025710	-0.100993	-1.355253	0.023732	-1.262483	-9.897282	0.175989	0.000000	0.000000	26.875571	8.339428	-22.431873	30.629457	-35.615095	-26.453222	140.673956	67.543663	8.848620	11.544726	6.915845	-23.306834	66.156095	20.904006	47.814501	-9.173728	-11.492878
2.150000	-2.593698	-11.272693	94.010213	0.225613	1.071747	0.533588	13.175093	-3.957274	-9.237911	9.395903	0.163989	30.942594	18.718638	0.000000	14.678380	1.785632	-12.936925	10.250764	0.178910	25.477824	13.865897	0.000000	-0.170514	-0.888770	0.099444	-0.316661	-1.182064	0.105659	-0.280137	-2.160955	0.105659	-0.194880	-2.160955	0.087014	-0.158339	-1.812379	0.080798	-0.097432	-1.376704	0.074583	-1.217964	-10.053941	0.553079	0.000000	0.000000	26.996693	8.164237	-22.673414	29.325743	-36.379862	-25.713408	140.860904	67.889205	9.544294	11.807833	7.100201	-23.414599	66.350630	21.107339	48.070381	-9.500575	-11.741204
2.166667	-2.717579	-11.351268	93.981170	0.225730	1.071674	0.533167	13.171682	-4.077995	-9.135980	9.306343	0.162426	30.965928	18.729882	0.000000	14.620228	1.934181	-12.933774	10.046503	0.175345	25.401066	13.952794	0.000000	-0.163006	-0.903372	0.164249	-0.302718	-1.201484	0.174515	-0.267802	-2.196458	0.174515	-0.186299	-2.196458	0.143718	-0.151367	-1.842156	0.133452	-0.093141	-1.399323	0.123187	-1.164332	-10.219122	0.913504	0.000000	0.000000	27.108717	8.037423	-22.885361	28.145479	-37.066856	-25.269487	141.241776	67.970127	10.537136	12.018155	7.188832	-23.528290	66.017606	21.405526	48.887724	-9.775577	-11.916923
2.183333	-2.798378	-11.442486	93.981172	0.225731	1.071564	0.532767	13.182270	-4.165825	-9.072629	9.218660	0.160896	30.974486	18.744444	0.000000	14.615564	2.039611	-12.896076	9.923539	0.173198	25.320393	14.042913	0.000000	-0.154193	-0.912228	0.215947	-0.286352	-1.213263	0.229444	-0.253324	-2.217991	0.229444	-0.176227	-2.217991	0.188954	-0.143184	-1.860215	0.175457	-0.088106	-1.413041	0.161960	-1.101385	-10.319305	1.201032	0.000000	0.000000	27.217878	7.879170	-23.069104	27.131512	-37.673659	-25.182532	141.848640	68.085295	11.549104	12.005054	7.201713	-23.611638	65.191179	21.777672	50.232142	-10.004926	-11.952775
2.200000	-2.840495	-11.533724	93.976457	0.225648	1.071452	0.532389	13.194093	-4.216353	-9.012624	9.122862	0.159224	30.959511	18.762101	0.000000	14.632224	2.099283	-12.878116	9.843699	0.171805	25.219271	14.171482	0.000000	-0.145796	-0.915831	0.258247	-0.270757	-1.218055	0.274387	-0.239528	-2.226751	0.274387	-0.166630	-2.226751	0.225966	-0.135386	-1.867562	0.209826	-0.083308	-1.418622	0.193685	-1.041403	-10.360061	1.436292	0.000000	0.000000	27.305973	7.701342	-23.235699	26.354263	-38.169792	-25.476559	142.634672	68.134675	12.589597	11.726998	7.258718	-23.688827	64.640230	22.159884	51.316387	-10.210743	-12.016373
2.216667	-2.847441	-11.624315	93.966854	0.225490	1.071331	0.532064	13.219361	-4.235498	-8.960643	9.045808	0.157879	30.938291	18.778706	0.000000	14.689651	2.108662	-12.907941	9.849466	0.171906	25.119121	14.355920	0.000000	-0.138486	-0.915157	0.290894	-0.257183	-1.217159	0.309075	-0.227519	-2.225114	0.309075	-0.158276	-2.225114	0.254533	-0.128598	-1.866189	0.236352	-0.079131	-1.417579	0.218171	-0.989192	-10.352443	1.617867	0.000000	0.000000	27.382641	7.520923	-23.408134	25.826049	-38.544280	-26.186124	143.540606	68.059311	13.599416	11.222956	7.338255	-23.762346	64.172749	22.553440	52.275007	-10.452660	-12.155904
